<svg width="226" height="120" viewBox="0 0 226 120" fill="none" xmlns="http://www.w3.org/2000/svg">
<g clip-path="url(#clip0)">
<path d="M142.582 82.1703C143.242 81.511 144.148 81.1813 145.137 81.1813C146.126 81.1813 146.951 81.511 147.692 82.1703C148.434 82.8297 148.764 83.7363 148.764 84.7253C148.764 85.7967 148.352 86.6209 147.692 87.2802C147.033 87.9396 146.126 88.2692 145.137 88.2692C144.148 88.2692 143.242 87.9396 142.582 87.2802C141.841 86.6209 141.511 85.7143 141.511 84.7253C141.511 83.6538 141.923 82.8297 142.582 82.1703Z" fill="white"/>
<path d="M20.3572 98.489C22.7473 98.9011 24.8077 99.3956 26.5385 100.137C28.2693 100.797 29.6703 101.868 30.8242 103.104C31.8956 104.505 32.4725 106.319 32.4725 108.544C32.4725 110.687 31.8956 112.665 30.7418 114.396C29.5879 116.126 27.9396 117.445 25.8791 118.434C23.8187 119.423 21.4286 119.918 18.7912 119.918C15.9066 119.918 13.3517 119.423 11.1264 118.352C8.90112 117.363 7.17035 115.879 5.93409 113.984C4.69782 112.17 4.03848 109.945 4.03848 107.555L9.97255 107.637C10.1374 109.863 11.044 111.593 12.6099 112.912C14.2583 114.231 16.3187 114.89 18.8736 114.89C21.0989 114.89 22.9121 114.396 24.3132 113.407C25.7143 112.418 26.3736 111.099 26.3736 109.368C26.3736 108.214 25.9616 107.225 25.2198 106.484C24.478 105.742 23.489 105.247 22.1704 104.835C20.8517 104.423 19.0385 104.011 16.6484 103.599C14.2583 103.187 12.1978 102.61 10.4671 101.951C8.73628 101.291 7.33519 100.22 6.26376 98.8187C5.10991 97.4176 4.6154 95.6044 4.6154 93.2967C4.6154 91.2363 5.19233 89.3406 6.26376 87.6923C7.33519 86.0439 8.90112 84.7253 10.8791 83.8187C12.8572 82.9121 15.1649 82.4176 17.7198 82.4176C20.3572 82.4176 22.7473 82.9121 24.8077 83.9011C26.8682 84.8901 28.4341 86.2088 29.6703 87.9395C30.9066 89.6703 31.566 91.6483 31.6484 93.8736H25.7143C25.5495 91.978 24.6429 90.4121 23.2418 89.2582C21.7583 88.1044 19.9451 87.5275 17.7198 87.5275C15.5769 87.5275 13.9286 88.022 12.6099 88.9286C11.3736 89.9176 10.7143 91.2363 10.7143 92.8846C10.7143 94.1209 11.1264 95.0275 11.8682 95.7692C12.6099 96.4286 13.6813 97.0055 14.9176 97.3352C16.1539 97.6648 17.9671 98.0769 20.3572 98.489Z" fill="white"/>
<path fill-rule="evenodd" clip-rule="evenodd" d="M55.6319 93.956C53.6538 92.8846 51.3461 92.3901 48.7912 92.3901C46.2363 92.3901 43.9286 92.967 41.9505 94.1208C39.9725 95.2747 38.4066 96.8406 37.3352 98.9835C36.2637 101.044 35.6868 103.516 35.6868 106.319C35.6868 109.038 36.2637 111.429 37.4176 113.571C38.5714 115.632 40.1374 117.28 42.2802 118.434C44.3407 119.588 46.8132 120.165 49.6154 120.165C52.8297 120.165 55.5494 119.258 57.6923 117.527C59.8352 115.797 61.1538 113.489 61.6483 110.769H55.9615C55.5494 112.253 54.8077 113.489 53.5714 114.313C52.3352 115.137 50.9341 115.549 49.1209 115.549C46.8956 115.549 45.1648 114.89 43.7637 113.489C42.445 112.088 41.7033 110.275 41.5385 107.885V107.555H61.8956C61.978 106.813 62.0604 106.071 62.0604 105.412C62.0604 102.775 61.4011 100.549 60.3297 98.5714C59.1758 96.511 57.6099 95.0274 55.6319 93.956ZM41.7857 103.187C42.033 101.291 42.7747 99.8077 44.0934 98.6538C45.4121 97.5 47.0604 96.923 48.956 96.923C50.9341 96.923 52.5824 97.5 53.9011 98.5714C55.2198 99.6428 55.9615 101.209 56.2088 103.187H41.7857Z" fill="white"/>
<path d="M82.7473 98.6538C81.5934 97.7472 80.1099 97.2527 78.4615 97.2527C76.1538 97.2527 74.3407 98.0769 73.022 99.9725C71.6209 101.621 70.9615 103.764 70.9615 106.401C70.9615 109.038 71.6209 111.264 73.022 112.912C74.4231 114.56 76.2363 115.385 78.544 115.385C80.2747 115.385 81.7582 114.89 82.9121 113.983C84.0659 112.994 84.8077 111.758 85.1374 110.192H90.9066C90.4121 113.324 89.011 115.714 86.8681 117.527C84.6429 119.258 81.8407 120.165 78.4615 120.165C75.7418 120.165 73.4341 119.588 71.3736 118.434C69.3956 117.28 67.7473 115.714 66.6758 113.571C65.6044 111.511 65.0275 109.038 65.0275 106.319C65.0275 103.516 65.522 101.126 66.6758 99.0659C67.8297 96.923 69.3956 95.3571 71.456 94.2033C73.5165 93.0494 75.9066 92.4725 78.6264 92.4725C82.0055 92.4725 84.7253 93.2967 86.8681 95.1098C89.011 96.923 90.4121 99.3131 90.9066 102.363H85.0549C84.6429 100.797 83.9011 99.5604 82.7473 98.6538Z" fill="white"/>
<path d="M113.407 106.071C113.407 108.874 112.83 111.016 111.593 112.665C110.357 114.231 108.626 115.055 106.484 115.055C104.423 115.055 102.857 114.396 101.786 112.995C100.714 111.593 100.22 109.615 100.22 106.978V92.7198H94.533V107.555C94.533 111.923 95.522 115.055 97.5 117.033C99.478 119.011 102.033 120 105.165 120C108.709 120 111.429 118.764 113.489 116.291L114.148 119.753H119.176V92.8022H113.489V106.071H113.407Z" fill="white"/>
<path d="M130.22 96.7583C130.962 95.522 131.951 94.533 133.187 93.7912C134.423 93.0495 136.071 92.7198 138.132 92.6374H139.368V97.9945H136.813C134.423 97.9945 132.775 98.7363 131.703 100.302C130.632 101.868 130.137 103.764 130.137 106.154V119.67H124.451V92.7198H129.56L130.22 96.7583Z" fill="white"/>
<path d="M147.94 92.7198H142.253V119.67H147.94V92.7198Z" fill="white"/>
<path d="M160.714 111.758C160.714 112.83 160.962 113.571 161.374 113.984C161.868 114.478 162.527 114.643 163.516 114.643H167.802V119.67H162.28C159.725 119.67 157.83 119.093 156.676 117.857C155.522 116.703 154.945 114.808 154.945 112.335V97.6649H150.247V92.6374H154.945V85.1374H160.714V92.6374H167.225V97.6649H160.714V111.758Z" fill="white"/>
<path fill-rule="evenodd" clip-rule="evenodd" d="M193.846 112.83V102.198C193.846 99.0659 192.857 96.5934 190.879 94.945C188.901 93.2967 186.099 92.3901 182.473 92.3901C179.093 92.3901 176.291 93.1318 174.231 94.6154C172.088 96.0989 170.934 98.2417 170.687 100.879H176.291C176.538 99.7252 177.115 98.7362 178.187 97.9945C179.258 97.2527 180.659 96.923 182.308 96.923C184.203 96.923 185.604 97.3351 186.676 98.2417C187.747 99.0659 188.242 100.302 188.242 101.786V103.434H181.401C177.61 103.434 174.808 104.176 172.83 105.659C170.852 107.143 169.863 109.286 169.863 112.088C169.863 114.56 170.769 116.456 172.582 117.857C174.396 119.258 176.868 120 179.835 120C183.709 120 186.676 118.434 188.736 115.385C188.736 116.786 189.148 117.857 189.89 118.599C190.632 119.341 191.951 119.67 193.681 119.67H196.648V114.725H195.577C194.505 114.725 193.846 114.066 193.846 112.83ZM188.242 108.626C188.242 110.769 187.5 112.418 186.181 113.654C184.863 114.89 183.049 115.549 180.659 115.549C179.093 115.549 177.857 115.22 177.033 114.478C176.126 113.736 175.714 112.83 175.714 111.676C175.714 110.357 176.209 109.368 177.115 108.626C178.104 107.967 179.423 107.637 181.154 107.637H188.242V108.626Z" fill="white"/>
<path d="M211.154 103.434C213.462 103.681 215.44 104.093 217.005 104.588C218.571 105.165 219.808 105.907 220.714 106.978C221.621 108.132 222.115 109.615 222.115 111.511C222.115 113.159 221.621 114.643 220.632 115.962C219.643 117.28 218.324 118.269 216.593 118.929C214.863 119.588 212.967 119.918 210.824 119.918C207.28 119.918 204.313 119.093 202.088 117.445C199.863 115.797 198.709 113.571 198.626 110.687H204.231C204.313 112.088 204.973 113.242 206.209 114.148C207.363 115.055 209.011 115.467 210.907 115.467C212.637 115.467 214.038 115.137 215.11 114.478C216.181 113.819 216.758 112.912 216.758 111.841C216.758 110.934 216.511 110.275 216.016 109.78C215.522 109.286 214.863 108.956 214.038 108.791C213.359 108.655 212.399 108.519 211.112 108.337C210.839 108.298 210.551 108.258 210.247 108.214C207.857 107.885 205.962 107.555 204.396 107.06C202.83 106.648 201.593 105.907 200.687 104.835C199.78 103.764 199.286 102.363 199.286 100.632C199.286 98.9835 199.78 97.5824 200.687 96.2637C201.676 95.0275 202.912 94.0385 204.56 93.2967C206.126 92.555 208.022 92.2253 210.082 92.2253C213.544 92.2253 216.264 93.0495 218.407 94.533C220.549 96.0165 221.703 98.1594 221.868 100.879H216.346C216.264 99.6429 215.604 98.6539 214.533 97.8297C213.462 97.0879 212.06 96.6758 210.412 96.6758C208.764 96.6758 207.363 97.0055 206.374 97.6648C205.302 98.2418 204.808 99.1484 204.808 100.22C204.808 101.044 205.055 101.621 205.549 102.033C206.044 102.445 206.703 102.692 207.445 102.857C208.076 102.997 209.065 103.138 210.412 103.329C210.648 103.362 210.895 103.397 211.154 103.434Z" fill="white"/>
<path d="M66.2637 33.2143C66.2637 14.8352 51.4286 0 33.1319 0C14.8352 0 0 14.8352 0 33.2143C0 51.5934 14.8352 66.4286 33.1319 66.4286C51.4286 66.4286 66.2637 51.5934 66.2637 33.2143Z" fill="#FC273F"/>
<path d="M113.077 66.4286C131.375 66.4286 146.209 51.558 146.209 33.2143C146.209 14.8705 131.375 0 113.077 0C94.7787 0 79.9451 14.8705 79.9451 33.2143C79.9451 51.558 94.7787 66.4286 113.077 66.4286Z" fill="#FC273F"/>
<path d="M192.857 0C211.154 0 225.989 14.8352 225.989 33.2143C225.989 51.5934 211.154 66.4286 192.857 66.4286C174.56 66.4286 159.725 51.5934 159.725 33.2143C159.725 14.8352 174.56 0 192.857 0Z" fill="#FC273F"/>
</g>
<defs>
<clipPath id="clip0">
<rect width="225.989" height="120" fill="white"/>
</clipPath>
</defs>
</svg>
